<svg width="20" height="21" viewBox="0 0 20 21" fill="none" xmlns="http://www.w3.org/2000/svg">
<path d="M2.67633 5.10571H2.64765C2.33545 5.12449 2.02272 5.07888 1.72899 4.97172C1.43526 4.86457 1.16683 4.69817 0.940477 4.48293C0.714121 4.26769 0.534696 4.00822 0.413406 3.72072C0.292116 3.43322 0.231565 3.12388 0.235535 2.812C0.239505 2.50012 0.30791 2.19241 0.43648 1.90808C0.565049 1.62375 0.751022 1.3689 0.982783 1.15946C1.21454 0.950011 1.48712 0.790466 1.78348 0.690782C2.07985 0.591098 2.39364 0.553416 2.70526 0.58009C3.01843 0.557473 3.3329 0.599713 3.62891 0.704154C3.92491 0.808596 4.19605 0.97298 4.42527 1.18697C4.65449 1.40096 4.83683 1.65993 4.96083 1.9476C5.08484 2.23526 5.14782 2.5454 5.14581 2.85851C5.14381 3.17162 5.07687 3.48094 4.9492 3.767C4.82153 4.05307 4.63589 4.3097 4.40395 4.52076C4.17202 4.73181 3.8988 4.89274 3.60148 4.99341C3.30417 5.09407 2.98918 5.13231 2.67633 5.10571Z" fill="#18181B"/>
<path d="M4.72747 8.15186H0.654663V20.3365H4.72747V8.15186Z" fill="#18181B"/>
<path d="M15.4181 8.15186C14.7318 8.15372 14.0548 8.31027 13.4377 8.60978C12.8206 8.90929 12.2793 9.34403 11.8544 9.88149V8.15186H7.78162V20.3365H11.8544V14.7518C11.8544 14.2133 12.069 13.6967 12.4509 13.3159C12.8328 12.935 13.3507 12.7211 13.8908 12.7211C14.4309 12.7211 14.9489 12.935 15.3308 13.3159C15.7127 13.6967 15.9272 14.2133 15.9272 14.7518V20.3365H20V12.7211C20 12.121 19.8815 11.5269 19.6513 10.9725C19.421 10.4181 19.0835 9.91444 18.658 9.49015C18.2326 9.06586 17.7275 8.72929 17.1715 8.49967C16.6156 8.27004 16.0198 8.15186 15.4181 8.15186Z" fill="#18181B"/>
</svg>
