<svg width="101" height="26" viewBox="0 0 101 26" fill="none" xmlns="http://www.w3.org/2000/svg">
<path d="M14.7973 14.1558C14.8081 13.3211 15.0298 12.5028 15.4418 11.7768C15.8538 11.0509 16.4428 10.4409 17.1539 10.0037C16.7021 9.35858 16.1062 8.82764 15.4134 8.45308C14.7205 8.07853 13.9499 7.87069 13.1627 7.84606C11.4835 7.6698 9.85552 8.85089 8.99981 8.85089C8.12754 8.85089 6.81004 7.86356 5.39131 7.89275C4.47364 7.9224 3.57929 8.18925 2.79541 8.66731C2.01154 9.14537 1.36486 9.81833 0.918393 10.6206C-1.01561 13.969 0.426982 18.8901 2.27959 21.5967C3.20649 22.922 4.28977 24.4025 5.70722 24.35C7.09428 24.2925 7.61232 23.4655 9.28662 23.4655C10.9454 23.4655 11.4314 24.35 12.8776 24.3166C14.366 24.2925 15.3038 22.9854 16.1981 21.6475C16.8641 20.7031 17.3766 19.6594 17.7166 18.555C16.8518 18.1892 16.1139 17.5771 15.5948 16.7948C15.0757 16.0125 14.7983 15.0947 14.7973 14.1558Z" fill="white"/>
<path d="M12.0657 6.06606C12.8772 5.09185 13.277 3.83967 13.1802 2.57544C11.9404 2.70566 10.7951 3.29822 9.97265 4.23505C9.57051 4.69271 9.26251 5.22515 9.06627 5.80192C8.87002 6.37869 8.78938 6.98848 8.82894 7.59644C9.44908 7.60282 10.0626 7.46841 10.6232 7.20332C11.1839 6.93824 11.6771 6.54939 12.0657 6.06606Z" fill="white"/>
<path d="M27.8718 1.268C28.2614 1.24004 28.6524 1.2989 29.0165 1.44034C29.3806 1.58177 29.7088 1.80225 29.9774 2.08587C30.246 2.3695 30.4483 2.7092 30.5697 3.08047C30.6911 3.45174 30.7286 3.84533 30.6794 4.23284C30.6794 6.13909 29.6492 7.23484 27.8718 7.23484H25.7166V1.268H27.8718ZM26.6433 6.391H27.7683C28.0467 6.40764 28.3253 6.362 28.5839 6.25738C28.8424 6.15277 29.0744 5.99182 29.2629 5.78625C29.4513 5.58069 29.5916 5.33568 29.6735 5.06906C29.7554 4.80244 29.7767 4.52092 29.7361 4.245C29.7738 3.97017 29.7502 3.6904 29.6671 3.42573C29.584 3.16107 29.4434 2.91807 29.2553 2.71413C29.0672 2.5102 28.8364 2.3504 28.5793 2.24616C28.3222 2.14192 28.0453 2.09584 27.7683 2.11121H26.6433V6.391Z" fill="white"/>
<path d="M31.7263 4.9814C31.698 4.68548 31.7318 4.38691 31.8257 4.10484C31.9195 3.82277 32.0713 3.56343 32.2712 3.34345C32.4712 3.12347 32.7149 2.9477 32.9867 2.82743C33.2586 2.70715 33.5526 2.64502 33.8498 2.64502C34.1471 2.64502 34.4411 2.70715 34.7129 2.82743C34.9848 2.9477 35.2285 3.12347 35.4284 3.34345C35.6284 3.56343 35.7801 3.82277 35.874 4.10484C35.9678 4.38691 36.0017 4.68548 35.9734 4.9814C36.0022 5.27762 35.9688 5.5766 35.8752 5.85913C35.7816 6.14165 35.6299 6.40147 35.4299 6.62188C35.2299 6.8423 34.986 7.01843 34.7139 7.13897C34.4418 7.2595 34.1475 7.32177 33.8498 7.32177C33.5522 7.32177 33.2579 7.2595 32.9857 7.13897C32.7136 7.01843 32.4697 6.8423 32.2697 6.62188C32.0697 6.40147 31.9181 6.14165 31.8245 5.85913C31.7309 5.5766 31.6974 5.27762 31.7263 4.9814ZM35.0593 4.9814C35.0593 4.00533 34.6208 3.43453 33.8513 3.43453C33.0788 3.43453 32.6443 4.00533 32.6443 4.98141C32.6443 5.9653 33.0789 6.5317 33.8513 6.5317C34.6208 6.53169 35.0593 5.96138 35.0593 4.9814H35.0593Z" fill="white"/>
<path d="M41.6189 7.23486H40.697L39.7664 3.91845H39.6961L38.7693 7.23486H37.8562L36.615 2.73193H37.5164L38.323 6.16793H38.3894L39.3152 2.73193H40.1677L41.0935 6.16793H41.1638L41.9666 2.73193H42.8552L41.6189 7.23486Z" fill="white"/>
<path d="M43.8992 2.73198H44.7546V3.44731H44.821C44.9337 3.19039 45.1237 2.97501 45.3646 2.83121C45.6054 2.6874 45.8852 2.62233 46.1648 2.64506C46.3839 2.62858 46.6039 2.66162 46.8085 2.74172C47.0131 2.82181 47.197 2.94692 47.3467 3.10776C47.4964 3.2686 47.608 3.46106 47.6732 3.67088C47.7384 3.88071 47.7555 4.10251 47.7234 4.31986V7.23486H46.8347V4.54302C46.8347 3.81939 46.5203 3.45952 45.863 3.45952C45.7143 3.45259 45.5658 3.47791 45.4277 3.53374C45.2897 3.58957 45.1653 3.67459 45.0632 3.78298C44.9611 3.89136 44.8836 4.02054 44.8361 4.16168C44.7885 4.30281 44.7721 4.45255 44.7878 4.60063V7.23491H43.8992L43.8992 2.73198Z" fill="white"/>
<path d="M49.1394 0.974121H50.0281V7.23486H49.1394V0.974121Z" fill="white"/>
<path d="M51.2634 4.98148C51.2352 4.68554 51.269 4.38696 51.3629 4.10488C51.4568 3.8228 51.6085 3.56345 51.8085 3.34346C52.0085 3.12347 52.2522 2.94771 52.5241 2.82743C52.7959 2.70715 53.0899 2.64502 53.3872 2.64502C53.6845 2.64502 53.9785 2.70715 54.2504 2.82743C54.5223 2.94771 54.766 3.12347 54.9659 3.34346C55.1659 3.56345 55.3177 3.8228 55.4115 4.10488C55.5054 4.38696 55.5393 4.68554 55.511 4.98148C55.5398 5.27772 55.5063 5.5767 55.4127 5.85922C55.3191 6.14175 55.1674 6.40156 54.9674 6.62197C54.7674 6.84238 54.5235 7.0185 54.2513 7.13903C53.9792 7.25956 53.6849 7.32183 53.3872 7.32183C53.0896 7.32183 52.7952 7.25956 52.5231 7.13903C52.251 7.0185 52.0071 6.84238 51.8071 6.62197C51.607 6.40156 51.4554 6.14175 51.3617 5.85922C51.2681 5.5767 51.2346 5.27772 51.2634 4.98148ZM54.5964 4.98148C54.5964 4.00541 54.158 3.43461 53.3884 3.43461C52.616 3.43461 52.1814 4.00541 52.1814 4.98149C52.1814 5.96538 52.616 6.53178 53.3884 6.53178C54.158 6.53177 54.5964 5.96146 54.5964 4.98148H54.5964Z" fill="white"/>
<path d="M56.4465 5.96142C56.4465 5.15087 57.0501 4.68359 58.1213 4.61718L59.3411 4.54687V4.1582C59.3411 3.68261 59.0266 3.41406 58.4192 3.41406C57.9231 3.41406 57.5794 3.59619 57.4807 3.91455H56.6204C56.7112 3.14111 57.4387 2.64502 58.4602 2.64502C59.5891 2.64502 60.2258 3.20702 60.2258 4.1582V7.23486H59.3704V6.60205H59.3C59.1573 6.82904 58.9569 7.01409 58.7193 7.1383C58.4817 7.26251 58.2154 7.32143 57.9475 7.30905C57.7585 7.32871 57.5674 7.30854 57.3867 7.24985C57.2059 7.19115 57.0394 7.09522 56.898 6.96825C56.7566 6.84128 56.6434 6.68609 56.5656 6.51267C56.4878 6.33926 56.4473 6.15147 56.4465 5.96142ZM59.3411 5.57665V5.20019L58.2415 5.2705C57.6213 5.312 57.3401 5.52294 57.3401 5.91991C57.3401 6.32518 57.6916 6.56102 58.1751 6.56102C58.3167 6.57536 58.4598 6.56106 58.5958 6.51897C58.7318 6.47688 58.858 6.40786 58.9668 6.31602C59.0755 6.22417 59.1647 6.11139 59.229 5.98437C59.2933 5.85735 59.3314 5.71869 59.3411 5.57665Z" fill="white"/>
<path d="M61.3938 4.98146C61.3938 3.55861 62.1252 2.65724 63.2629 2.65724C63.5444 2.64427 63.8237 2.71168 64.0682 2.85157C64.3127 2.99147 64.5124 3.19807 64.6438 3.44724H64.7102V0.974121H65.5989V7.23486H64.7473V6.52343H64.677C64.5354 6.77092 64.3288 6.97496 64.0795 7.11344C63.8303 7.25192 63.5479 7.31957 63.2629 7.30907C62.1174 7.30912 61.3938 6.40773 61.3938 4.98146ZM62.3118 4.98146C62.3118 5.93654 62.762 6.51125 63.5149 6.51125C64.2639 6.51125 64.7268 5.92825 64.7268 4.98537C64.7268 4.04689 64.2591 3.45558 63.5149 3.45558C62.7669 3.45558 62.3118 4.03419 62.3118 4.98146H62.3118Z" fill="white"/>
<path d="M69.2756 4.9814C69.2473 4.68548 69.2811 4.38691 69.375 4.10484C69.4688 3.82277 69.6206 3.56343 69.8205 3.34345C70.0205 3.12347 70.2642 2.9477 70.536 2.82743C70.8079 2.70715 71.1019 2.64502 71.3991 2.64502C71.6964 2.64502 71.9904 2.70715 72.2623 2.82743C72.5341 2.9477 72.7778 3.12347 72.9778 3.34345C73.1777 3.56343 73.3295 3.82277 73.4233 4.10484C73.5171 4.38691 73.551 4.68548 73.5227 4.9814C73.5515 5.27762 73.5181 5.5766 73.4245 5.85913C73.3309 6.14165 73.1792 6.40147 72.9792 6.62188C72.7792 6.8423 72.5353 7.01843 72.2632 7.13897C71.9911 7.2595 71.6968 7.32177 71.3991 7.32177C71.1015 7.32177 70.8072 7.2595 70.5351 7.13897C70.2629 7.01843 70.019 6.8423 69.8191 6.62188C69.6191 6.40147 69.4674 6.14165 69.3738 5.85913C69.2802 5.5766 69.2468 5.27762 69.2756 4.9814ZM72.6086 4.9814C72.6086 4.00533 72.1701 3.43453 71.4006 3.43453C70.6281 3.43453 70.1936 4.00533 70.1936 4.98141C70.1936 5.9653 70.6282 6.5317 71.4006 6.5317C72.1701 6.53169 72.6086 5.96138 72.6086 4.9814Z" fill="white"/>
<path d="M74.7151 2.73198H75.5706V3.44731H75.637C75.7496 3.19039 75.9396 2.97501 76.1805 2.83121C76.4214 2.6874 76.7011 2.62233 76.9807 2.64506C77.1998 2.62858 77.4198 2.66162 77.6244 2.74172C77.829 2.82181 78.013 2.94692 78.1627 3.10776C78.3123 3.2686 78.4239 3.46106 78.4891 3.67088C78.5543 3.88071 78.5715 4.10251 78.5393 4.31986V7.23486H77.6506V4.54302C77.6506 3.81939 77.3362 3.45952 76.679 3.45952C76.5302 3.45259 76.3817 3.47791 76.2436 3.53374C76.1056 3.58957 75.9812 3.67459 75.8791 3.78298C75.777 3.89136 75.6995 4.02054 75.652 4.16168C75.6045 4.30281 75.588 4.45255 75.6038 4.60063V7.23491H74.7151V2.73198Z" fill="white"/>
<path d="M83.5608 1.61084V2.75244H84.5364V3.50098H83.5608V5.81641C83.5608 6.28809 83.7551 6.49463 84.1975 6.49463C84.3108 6.49427 84.4239 6.48742 84.5364 6.47412V7.21435C84.3768 7.2429 84.2151 7.25809 84.053 7.25976C83.0647 7.25976 82.6711 6.9121 82.6711 6.04394V3.50094H81.9563V2.7524H82.6711V1.61084H83.5608Z" fill="white"/>
<path d="M85.7502 0.974121H86.6311V3.45557H86.7014C86.8195 3.19625 87.0148 2.97966 87.2605 2.83531C87.5062 2.69096 87.7904 2.62588 88.0744 2.64893C88.2924 2.63707 88.5103 2.67346 88.7125 2.7555C88.9148 2.83754 89.0965 2.96322 89.2446 3.12355C89.3927 3.28389 89.5037 3.47494 89.5694 3.68308C89.6352 3.89121 89.6543 4.1113 89.6252 4.32764V7.23487H88.7356V4.54687C88.7356 3.82763 88.4006 3.46337 87.7727 3.46337C87.62 3.45084 87.4664 3.47184 87.3226 3.5249C87.1788 3.57795 87.0484 3.66178 86.9404 3.77051C86.8324 3.87925 86.7495 4.01027 86.6974 4.15441C86.6453 4.29855 86.6254 4.45232 86.639 4.60497V7.23485H85.7503L85.7502 0.974121Z" fill="white"/>
<path d="M94.8069 6.01911C94.6862 6.43065 94.4246 6.78664 94.0679 7.02479C93.7112 7.26294 93.2821 7.36809 92.8557 7.32185C92.5591 7.32968 92.2642 7.27286 91.9917 7.15533C91.7192 7.0378 91.4756 6.86238 91.2777 6.64124C91.0798 6.4201 90.9323 6.15855 90.8457 5.87472C90.759 5.5909 90.7351 5.29162 90.7756 4.99764C90.7361 4.70275 90.7604 4.40282 90.8469 4.11815C90.9334 3.83347 91.0801 3.5707 91.2769 3.34763C91.4738 3.12456 91.7163 2.94639 91.988 2.82518C92.2597 2.70397 92.5543 2.64256 92.8518 2.6451C94.1047 2.6451 94.8606 3.50109 94.8606 4.91509V5.22518H91.6809V5.27498C91.667 5.44023 91.6878 5.60656 91.7419 5.76331C91.796 5.92006 91.8823 6.06377 91.9952 6.18523C92.1081 6.30668 92.2452 6.4032 92.3975 6.4686C92.5499 6.534 92.7143 6.56683 92.8801 6.56498C93.0927 6.5905 93.3081 6.55223 93.4988 6.45502C93.6896 6.35781 93.8471 6.20607 93.9514 6.01909L94.8069 6.01911ZM91.6809 4.56794H93.9553C93.9665 4.41682 93.946 4.26502 93.895 4.1223C93.844 3.97958 93.7638 3.8491 93.6594 3.73924C93.555 3.62939 93.4288 3.54258 93.2889 3.48441C93.149 3.42623 92.9984 3.39797 92.8469 3.40144C92.6932 3.39951 92.5407 3.42837 92.3983 3.48632C92.2559 3.54426 92.1266 3.63012 92.0179 3.73883C91.9093 3.84755 91.8235 3.97691 91.7656 4.11931C91.7077 4.26171 91.6789 4.41425 91.6809 4.56794H91.6809Z" fill="white"/>
<path d="M33.5916 19.6011H28.8582L27.7214 22.9576H25.7166L30.2 10.5396H32.283L36.7664 22.9576H34.7273L33.5916 19.6011ZM29.3484 18.0523H33.1004L31.2508 12.605H31.199L29.3484 18.0523Z" fill="white"/>
<path d="M46.449 18.4311C46.449 21.2446 44.9431 23.0522 42.6707 23.0522C42.095 23.0823 41.5225 22.9497 41.0187 22.6696C40.5149 22.3894 40.1002 21.9731 39.8221 21.4682H39.7791V25.9526H37.9207V13.9038H39.7195V15.4096H39.7537C40.0446 14.9072 40.4664 14.493 40.974 14.2111C41.4816 13.9293 42.0562 13.7903 42.6365 13.809C44.9343 13.8091 46.449 15.6255 46.449 18.4311ZM44.5388 18.4311C44.5388 16.5981 43.5916 15.393 42.1463 15.393C40.7263 15.393 39.7713 16.6235 39.7713 18.4311C39.7713 20.2553 40.7263 21.477 42.1463 21.477C43.5916 21.477 44.5388 20.2807 44.5388 18.4311Z" fill="white"/>
<path d="M56.4138 18.4311C56.4138 21.2446 54.9079 23.0522 52.6355 23.0522C52.0598 23.0823 51.4873 22.9497 50.9835 22.6696C50.4797 22.3894 50.065 21.9731 49.7868 21.4682H49.7438V25.9526H47.8854V13.9038H49.6843V15.4096H49.7184C50.0094 14.9072 50.4311 14.493 50.9388 14.2111C51.4464 13.9293 52.0209 13.7903 52.6013 13.809C54.8991 13.809 56.4138 15.6254 56.4138 18.4311ZM54.5036 18.4311C54.5036 16.5981 53.5564 15.393 52.111 15.393C50.6911 15.393 49.736 16.6235 49.736 18.4311C49.736 20.2553 50.6911 21.477 52.111 21.477C53.5564 21.477 54.5036 20.2807 54.5036 18.4311H54.5036Z" fill="white"/>
<path d="M62.9998 19.4976C63.1375 20.7291 64.3338 21.5376 65.9685 21.5376C67.5349 21.5376 68.6619 20.729 68.6619 19.6187C68.6619 18.6548 67.9822 18.0777 66.3728 17.6821L64.7635 17.2944C62.4832 16.7437 61.4246 15.6772 61.4246 13.9468C61.4246 11.8042 63.2918 10.3325 65.9431 10.3325C68.5671 10.3325 70.366 11.8042 70.4265 13.9468H68.5505C68.4382 12.7075 67.4138 11.9595 65.9168 11.9595C64.4197 11.9595 63.3953 12.7163 63.3953 13.8179C63.3953 14.6958 64.0496 15.2124 65.6502 15.6079L67.0183 15.9438C69.5662 16.5464 70.6248 17.5698 70.6248 19.3862C70.6248 21.7094 68.7742 23.1645 65.8308 23.1645C63.0769 23.1645 61.2175 21.7436 61.0974 19.4975L62.9998 19.4976Z" fill="white"/>
<path d="M74.6355 11.7612V13.9038H76.3572V15.3755H74.6355V20.3667C74.6355 21.1421 74.9802 21.5034 75.7371 21.5034C75.9414 21.4999 76.1455 21.4855 76.3484 21.4604V22.9233C76.0081 22.9869 75.6623 23.0157 75.3162 23.0092C73.4832 23.0092 72.7683 22.3208 72.7683 20.5649V15.3755H71.4519V13.9038H72.7683V11.7612H74.6355Z" fill="white"/>
<path d="M77.3543 18.4312C77.3543 15.5825 79.032 13.7925 81.6483 13.7925C84.2733 13.7925 85.9432 15.5825 85.9432 18.4312C85.9432 21.2876 84.282 23.0698 81.6483 23.0698C79.0154 23.0698 77.3543 21.2876 77.3543 18.4312ZM84.0496 18.4312C84.0496 16.4771 83.1541 15.3237 81.6482 15.3237C80.1424 15.3237 79.2479 16.4858 79.2479 18.4312C79.2479 20.3931 80.1424 21.5376 81.6482 21.5376C83.1541 21.5376 84.0496 20.3931 84.0496 18.4312H84.0496Z" fill="white"/>
<path d="M87.4753 13.9039H89.2478V15.4449H89.2908C89.4107 14.9636 89.6927 14.5383 90.0893 14.2404C90.4859 13.9425 90.9729 13.7903 91.4685 13.8092C91.6827 13.8084 91.8963 13.8317 92.1053 13.8785V15.6168C91.8349 15.5342 91.5529 15.4963 91.2703 15.5045C91.0003 15.4936 90.7311 15.5412 90.4813 15.644C90.2314 15.7469 90.0068 15.9027 89.8229 16.1006C89.6389 16.2984 89.4999 16.5338 89.4155 16.7905C89.3311 17.0471 89.3032 17.319 89.3337 17.5875V22.9576H87.4753L87.4753 13.9039Z" fill="white"/>
<path d="M100.674 20.2983C100.424 21.9419 98.823 23.0698 96.7751 23.0698C94.1414 23.0698 92.5066 21.3052 92.5066 18.4741C92.5066 15.6343 94.1501 13.7925 96.697 13.7925C99.2019 13.7925 100.777 15.5132 100.777 18.2583V18.895H94.3826V19.0073C94.3531 19.3405 94.3948 19.6762 94.505 19.992C94.6151 20.3079 94.7912 20.5967 95.0216 20.8392C95.252 21.0817 95.5313 21.2725 95.841 21.3988C96.1508 21.5251 96.4838 21.5841 96.8181 21.5718C97.2573 21.6129 97.698 21.5112 98.0747 21.2818C98.4514 21.0523 98.744 20.7074 98.9089 20.2983L100.674 20.2983ZM94.3914 17.5962H98.9177C98.9344 17.2966 98.889 16.9968 98.7843 16.7156C98.6796 16.4344 98.518 16.1778 98.3094 15.9621C98.1009 15.7463 97.85 15.576 97.5726 15.4617C97.2951 15.3475 96.997 15.2919 96.697 15.2983C96.3944 15.2965 96.0944 15.3547 95.8144 15.4694C95.5343 15.5842 95.2798 15.7532 95.0654 15.9669C94.851 16.1805 94.6811 16.4345 94.5654 16.7141C94.4497 16.9938 94.3906 17.2936 94.3914 17.5962V17.5962Z" fill="white"/>
</svg>
