<svg width="116" height="29" viewBox="0 0 116 29" fill="none" xmlns="http://www.w3.org/2000/svg">
<path fill-rule="evenodd" clip-rule="evenodd" d="M0.962055 2.42231C0.673965 2.73403 0.507568 3.21034 0.507568 3.83378V25.946C0.507568 26.5694 0.673965 27.0458 0.971989 27.345L1.04898 27.4123L13.3872 15.0233V14.7465L1.03904 2.35498L0.962055 2.42231Z" fill="url(#paint0_linear_714_174)"/>
<path fill-rule="evenodd" clip-rule="evenodd" d="M17.4922 19.1657L13.377 15.0335V14.7442L17.4922 10.6121L17.5816 10.6669L22.4494 13.445C23.8426 14.233 23.8426 15.5348 22.4494 16.3328L17.5816 19.1108L17.4922 19.1657Z" fill="url(#paint1_linear_714_174)"/>
<path fill-rule="evenodd" clip-rule="evenodd" d="M17.5817 19.1106L13.3771 14.8887L0.961914 27.355C1.4164 27.8438 2.17885 27.8986 3.0307 27.4223L17.5817 19.1106Z" fill="url(#paint2_linear_714_174)"/>
<path fill-rule="evenodd" clip-rule="evenodd" d="M17.5817 10.2882L3.0307 1.98895C2.17885 1.50017 1.41392 1.5675 0.961914 2.05628L13.3771 14.5101L17.5817 10.2882Z" fill="url(#paint3_linear_714_174)"/>
<path opacity="0.2" fill-rule="evenodd" clip-rule="evenodd" d="M17.4922 19.021L3.04048 27.2654C2.23332 27.7317 1.51309 27.6993 1.04867 27.2753L0.97168 27.3526L1.04867 27.42C1.51309 27.8414 2.23332 27.8763 3.04048 27.41L17.5916 19.1108L17.4922 19.021Z" fill="#28282D"/>
<path opacity="0.12" fill-rule="evenodd" clip-rule="evenodd" d="M22.4495 16.1879L17.48 19.0208L17.5694 19.1106L22.4371 16.3326C23.135 15.9336 23.4777 15.4099 23.4777 14.8887C23.4355 15.3675 23.0803 15.8213 22.4495 16.1879Z" fill="#28282D"/>
<path opacity="0.25" fill-rule="evenodd" clip-rule="evenodd" d="M3.03084 2.51221L22.4496 13.5895C23.0804 13.9461 23.4356 14.4125 23.4902 14.8888C23.4902 14.3676 23.1475 13.8439 22.4496 13.4449L3.03084 2.36757C1.63758 1.56707 0.507568 2.2354 0.507568 3.83391V3.97854C0.507568 2.37755 1.63758 1.72169 3.03084 2.51221Z" fill="white"/>
<path d="M61.5275 7.41897C60.626 7.41897 59.8661 7.10226 59.265 6.47882C58.669 5.87284 58.3362 5.03743 58.3511 4.18456C58.3511 3.27433 58.6591 2.50376 59.265 1.89279C59.8636 1.26935 60.6235 0.952637 61.525 0.952637C62.4166 0.952637 63.1766 1.26935 63.7875 1.89279C64.3935 2.52371 64.7015 3.29428 64.7015 4.18456C64.6915 5.09728 64.3836 5.86785 63.7875 6.47633C63.189 7.10476 62.429 7.41897 61.5275 7.41897ZM34.703 7.41897C33.8214 7.41897 33.0565 7.10725 32.4306 6.49129C31.8097 5.87782 31.4943 5.10226 31.4943 4.18705C31.4943 3.27184 31.8097 2.49628 32.4306 1.88281C33.044 1.26685 33.809 0.955131 34.703 0.955131C35.1401 0.955131 35.5648 1.04241 35.9721 1.21947C36.372 1.39154 36.6973 1.62595 36.9382 1.91274L36.9978 1.98506L36.3248 2.6484L36.2552 2.5661C35.8753 2.11224 35.3661 1.89029 34.6931 1.89029C34.0921 1.89029 33.5681 2.10476 33.1359 2.5287C32.7013 2.95513 32.4803 3.51373 32.4803 4.18954C32.4803 4.86536 32.7013 5.42396 33.1359 5.85039C33.5681 6.27433 34.0921 6.4888 34.6931 6.4888C35.3338 6.4888 35.8728 6.27433 36.2925 5.85039C36.5408 5.60102 36.6948 5.25189 36.7495 4.81049H34.5913V3.87782H37.6758L37.6882 3.96261C37.7106 4.11972 37.7329 4.28181 37.7329 4.43144C37.7329 5.29179 37.4746 5.98755 36.963 6.50127C36.3819 7.10974 35.6219 7.41897 34.703 7.41897ZM70.3689 7.2868H69.4177L66.5045 2.606L66.5293 3.4489V7.28431H65.5781V1.0873H66.6634L66.6933 1.13468L69.4326 5.54366L69.4077 4.70326V1.0873H70.3689V7.2868ZM54.38 7.2868H53.4164V2.01997H51.7449V1.0873H56.0489V2.01997H54.3775V7.2868H54.38ZM50.9602 7.2868H49.999V1.0873H50.9602V7.2868ZM45.5585 7.2868H44.5974V2.01997H42.926V1.0873H47.2299V2.01997H45.5585V7.2868ZM42.3175 7.27683H38.632V1.0873H42.3175V2.01997H39.5956V3.72072H42.0518V4.64341H39.5956V6.34416H42.3175V7.27683ZM59.9704 5.83792C60.4 6.26935 60.9216 6.4863 61.5275 6.4863C62.1509 6.4863 62.66 6.27433 63.0847 5.83792C63.5069 5.41398 63.7205 4.85787 63.7205 4.18705C63.7205 3.51623 63.5069 2.95762 63.0872 2.53618C62.6575 2.10476 62.1335 1.8878 61.53 1.8878C60.9066 1.8878 60.3975 2.09977 59.9753 2.53618C59.5531 2.96012 59.3395 3.51623 59.3395 4.18705C59.3395 4.85787 59.5506 5.41648 59.9704 5.83792Z" fill="white"/>
<path fill-rule="evenodd" clip-rule="evenodd" d="M58.4507 16.1421C56.1037 16.1421 54.2013 17.9302 54.2013 20.3965C54.2013 22.8404 56.1161 24.6509 58.4507 24.6509C60.7976 24.6509 62.7 22.8504 62.7 20.3965C62.7 17.9302 60.7976 16.1421 58.4507 16.1421ZM58.4507 22.9651C57.1667 22.9651 56.0615 21.8977 56.0615 20.3865C56.0615 18.8529 57.1691 17.808 58.4507 17.808C59.7346 17.808 60.8398 18.8529 60.8398 20.3865C60.8423 21.9077 59.7346 22.9651 58.4507 22.9651ZM49.1796 16.1421C46.8327 16.1421 44.9303 17.9302 44.9303 20.3965C44.9303 22.8404 46.8451 24.6509 49.1796 24.6509C51.5265 24.6509 53.4289 22.8504 53.4289 20.3965C53.4289 17.9302 51.5241 16.1421 49.1796 16.1421ZM49.1796 22.9651C47.8956 22.9651 46.7904 21.8977 46.7904 20.3865C46.7904 18.8529 47.8981 17.808 49.1796 17.808C50.4636 17.808 51.5688 18.8529 51.5688 20.3865C51.5688 21.9077 50.4636 22.9651 49.1796 22.9651ZM38.1477 17.4414V19.2419H42.4517C42.3201 20.2519 41.9873 20.9975 41.4781 21.5087C40.8473 22.1421 39.8738 22.8304 38.1577 22.8304C35.5127 22.8304 33.4439 20.6858 33.4439 18.0299C33.4439 15.3741 35.5127 13.2294 38.1577 13.2294C39.5857 13.2294 40.6263 13.7955 41.3987 14.5187L42.6702 13.2419C41.5974 12.2095 40.1693 11.4189 38.1676 11.4189C34.5391 11.4189 31.4943 14.3865 31.4943 18.0199C31.4943 21.6633 34.5367 24.6209 38.1676 24.6209C40.1271 24.6209 41.5974 23.9775 42.7597 22.7656C43.9443 21.5761 44.3193 19.8977 44.3193 18.5436C44.3193 18.1222 44.287 17.7431 44.22 17.4214H38.1452C38.1477 17.4189 38.1477 17.4414 38.1477 17.4414ZM83.2711 18.8429C82.916 17.8878 81.8431 16.1322 79.6427 16.1322C77.4621 16.1322 75.6492 17.8554 75.6492 20.3865C75.6492 22.7756 77.4423 24.6409 79.8538 24.6409C81.7909 24.6409 82.9185 23.4514 83.3829 22.7531L81.9449 21.7855C81.4681 22.4963 80.805 22.9626 79.8637 22.9626C78.9125 22.9626 78.2469 22.5287 77.8049 21.6733L83.4698 19.3167C83.4698 19.3192 83.2711 18.8429 83.2711 18.8429ZM77.4944 20.2643C77.4497 18.6209 78.766 17.7855 79.7073 17.7855C80.4498 17.7855 81.0682 18.1521 81.2793 18.6858L77.4944 20.2643ZM72.8924 24.3865H74.7526V11.8878H72.8924V24.3865ZM69.8377 17.0873H69.7706C69.3509 16.586 68.5537 16.1322 67.5354 16.1322C65.4219 16.1322 63.4748 18 63.4748 20.399C63.4748 22.788 65.412 24.6334 67.5354 24.6334C68.5413 24.6334 69.3509 24.177 69.7706 23.6658H69.8377V24.2768C69.8377 25.9002 68.9734 26.7756 67.5801 26.7756C66.4402 26.7756 65.7324 25.9526 65.4443 25.2643L63.8275 25.9426C64.2919 27.0648 65.5312 28.4539 67.5777 28.4539C69.7582 28.4539 71.606 27.1646 71.606 24.0199V16.3865H69.8476V17.0873C69.8501 17.0873 69.8377 17.0873 69.8377 17.0873ZM67.7018 22.9651C66.4178 22.9651 65.345 21.8878 65.345 20.399C65.345 18.8977 66.4178 17.8105 67.7018 17.8105C68.9734 17.8105 69.9594 18.9102 69.9594 20.399C69.9718 21.8878 68.9759 22.9651 67.7018 22.9651ZM91.9809 11.8878H87.5329V24.3865H89.3931V19.6534H91.9834C94.0422 19.6534 96.0663 18.1546 96.0663 15.7756C96.0663 13.3965 94.0497 11.8878 91.9809 11.8878ZM92.0355 17.9077H89.3906V13.6184H92.0355C93.4288 13.6184 94.2161 14.7731 94.2161 15.7631C94.2161 16.7431 93.4189 17.9077 92.0355 17.9077ZM103.522 16.1197C102.171 16.1197 100.778 16.7207 100.201 18.0299L101.85 18.7182C102.206 18.0299 102.856 17.7955 103.544 17.7955C104.508 17.7955 105.481 18.3741 105.504 19.4065V19.5386C105.171 19.3491 104.441 19.0598 103.567 19.0598C101.786 19.0598 99.9804 20.0374 99.9804 21.8703C99.9804 23.5486 101.441 24.6259 103.067 24.6259C104.317 24.6259 105.005 24.0598 105.434 23.404H105.501V24.3716H107.294V19.5835C107.294 17.3541 105.645 16.1197 103.522 16.1197ZM103.288 22.9651C102.68 22.9651 101.828 22.6658 101.828 21.8977C101.828 20.9302 102.891 20.5636 103.798 20.5636C104.617 20.5636 105.005 20.7406 105.491 20.985C105.357 22.1072 104.413 22.9551 103.288 22.9651ZM113.836 16.3865L111.7 21.808H111.633L109.42 16.3865H107.419L110.739 23.9651L108.847 28.177H110.784L115.892 16.3865H113.836ZM97.092 24.3865H98.9522V11.8878H97.092V24.3865Z" fill="white"/>
<defs>
<linearGradient id="paint0_linear_714_174" x1="12.2805" y1="3.59522" x2="-7.49394" y2="8.84252" gradientUnits="userSpaceOnUse">
<stop stop-color="#00A0FF"/>
<stop offset="0.00657" stop-color="#00A1FF"/>
<stop offset="0.2601" stop-color="#00BEFF"/>
<stop offset="0.5122" stop-color="#00D2FF"/>
<stop offset="0.7604" stop-color="#00DFFF"/>
<stop offset="1" stop-color="#00E3FF"/>
</linearGradient>
<linearGradient id="paint1_linear_714_174" x1="24.2663" y1="14.8889" x2="0.168571" y2="14.8889" gradientUnits="userSpaceOnUse">
<stop stop-color="#FFE000"/>
<stop offset="0.4087" stop-color="#FFBD00"/>
<stop offset="0.7754" stop-color="#FFA500"/>
<stop offset="1" stop-color="#FF9C00"/>
</linearGradient>
<linearGradient id="paint2_linear_714_174" x1="15.2954" y1="17.186" x2="-0.667352" y2="43.9425" gradientUnits="userSpaceOnUse">
<stop stop-color="#FF3A44"/>
<stop offset="1" stop-color="#C31162"/>
</linearGradient>
<linearGradient id="paint3_linear_714_174" x1="-2.16437" y1="-5.31106" x2="4.95729" y2="6.63883" gradientUnits="userSpaceOnUse">
<stop stop-color="#32A071"/>
<stop offset="0.0685" stop-color="#2DA771"/>
<stop offset="0.4762" stop-color="#15CF74"/>
<stop offset="0.8009" stop-color="#06E775"/>
<stop offset="1" stop-color="#00F076"/>
</linearGradient>
</defs>
</svg>
