<svg width="206" height="30" viewBox="0 0 206 30" fill="none" xmlns="http://www.w3.org/2000/svg">
<path d="M206 6.5641C206 8.35898 205.194 10 203.935 11.0769C203.431 11.4872 202.877 11.8462 202.273 12.1026C201.618 12.359 200.913 12.5128 200.157 12.5128C200.107 12.5128 200.057 12.5128 200.006 12.5128C196.884 12.4103 194.315 9.79487 194.315 6.5641C194.315 3.28205 196.934 0.615387 200.157 0.615387C200.208 0.615387 200.309 0.615387 200.359 0.615387H200.309C200.359 0.615387 200.409 0.615387 200.46 0.615387C200.51 0.615387 200.56 0.615387 200.56 0.615387C201.82 0.717951 202.978 1.23077 203.885 2C205.194 3.12821 206 4.71795 206 6.5641Z" fill="#E52A22"/>
<path d="M33.5946 29.8975V12.8718C33.5946 10.8205 33.2421 9.58976 32.2347 8.46156C31.3785 7.4872 30.0186 6.92309 28.709 6.92309C27.3491 6.92309 26.0396 7.4872 25.1834 8.51284C24.1257 9.74361 23.9242 11.0257 23.9242 12.4103V29.8975H16.7721V12.8718C16.7721 10.8205 16.4196 9.58976 15.4626 8.46156C14.6064 7.4872 13.2465 6.92309 11.9369 6.92309C10.577 6.92309 9.26748 7.4872 8.41125 8.51284C7.35355 9.74361 7.10171 11.0257 7.10171 12.4103V29.5385H0V0.256428H6.19511V4.30771C8.15941 1.94874 11.1311 0.0513 14.2034 0.0513C16.5203 0.0513 19.4416 1.28207 21.2044 3.1795C21.7081 3.74361 22.1614 4.30771 22.5139 4.92309C24.4782 2.20515 27.6513 0.0513 31.0259 0.0513C33.3428 0.0513 36.2641 1.28207 38.0269 3.1795C40.4445 5.74361 40.6963 8.66668 40.6963 12.3077V29.8975H33.5946Z" fill="#28282D"/>
<path d="M49.1076 25.641C46.7404 22.718 45.733 19.2821 45.733 15.4359C45.733 11.4359 46.8915 7.94873 49.1076 5.23078C51.6763 2.15386 55.7056 0.205139 59.735 0.205139C63.8651 0.205139 67.7937 2.05129 70.3624 5.23078C72.8303 8.20514 73.7873 11.641 73.7873 15.4359C73.7873 19.4872 72.7296 22.6667 70.3624 25.641C67.7433 28.7692 63.8651 29.8462 59.735 29.8462C55.6049 29.8462 51.6763 28.718 49.1076 25.641ZM64.822 9.53847C63.714 7.94873 61.8 7.1795 59.735 7.1795C57.6699 7.1795 55.756 7.94873 54.6479 9.53847C53.4895 11.1282 53.0866 13.2821 53.0866 15.4359C53.0866 17.5898 53.4391 19.7436 54.6479 21.2821C55.756 22.8718 57.6699 23.6923 59.735 23.6923C61.8 23.6923 63.714 22.8718 64.822 21.2821C65.9805 19.6923 66.4338 17.5898 66.4338 15.4359C66.4338 13.2821 66.0308 11.0769 64.822 9.53847Z" fill="#28282D"/>
<path d="M101.842 3.53849C99.1721 0.871824 95.8479 0.307721 92.5237 0.512849C90.0054 0.666696 87.1849 1.58977 85.3716 3.7949C85.2709 3.94875 85.1198 4.10259 85.0191 4.20516V0.256439H78.824V29.8975H85.8753V17.2821C85.8753 15.3334 85.9257 13.1282 86.1775 11.8975C86.4797 10.3077 87.1849 9.07695 88.2426 8.30772C89.1492 7.64105 90.2572 7.28208 91.5164 7.17951C93.4303 7.12823 94.891 7.69234 95.8983 8.82054C97.3589 10.4103 97.7619 13.3334 97.7619 16.2564V29.9487H104.864V15.8975C104.864 11.4872 104.864 6.56413 101.842 3.53849Z" fill="#28282D"/>
<path d="M127.831 16.2564C126.169 16.5641 123.449 17.1282 120.83 17.7436C118.714 18.2052 116.8 19.2308 116.8 21.077C116.8 23.0257 118.513 24.4103 120.779 24.4103C123.449 24.4103 125.665 23.0257 126.874 21.1795C127.881 19.6923 127.831 17.7436 127.831 16.2564ZM128.637 29.8975V26.1026C125.866 29.3334 123.348 29.8462 119.067 29.8462C113.476 29.8462 109.9 26.9231 109.9 21.5898C109.9 17.9487 111.31 15.077 114.786 13.4872C118.261 11.8462 124.154 11.2308 127.78 10.718C127.327 8.66669 125.615 7.2308 122.442 7.2308C119.722 7.2308 117.304 8.25644 115.491 9.89746L111.462 5.17952C114.383 2.359 117.959 0.256439 122.945 0.256439C125.967 0.256439 129.09 1.89746 131.054 3.64105C133.774 6.00003 134.731 9.17952 134.731 12.7693V30H128.637V29.8975Z" fill="#28282D"/>
<path d="M146.819 29.8968V13.9993C146.819 11.8968 147.373 9.99932 148.632 8.66598C149.589 7.64034 151.05 6.87111 153.065 6.71726C155.079 6.56342 156.993 6.87111 158.403 7.43521V0.819829C157.648 0.512137 156.842 0.307009 156.087 0.153163C155.331 -0.00068349 154.525 -0.000683497 153.77 0.0505986C153.417 0.0505986 153.065 0.101881 152.662 0.153163C151.352 0.358291 150.093 0.768547 148.934 1.4865C147.675 2.25573 146.668 3.38393 145.963 4.6147V0.153163H139.768V29.8968H146.819Z" fill="#28282D"/>
<path d="M182.831 11.2821C182.479 10 181.874 8.82051 180.766 7.94872C179.759 7.07692 178.5 6.61538 177.241 6.61538C175.176 6.61538 173.513 7.38461 172.405 8.97436C171.247 10.5641 170.844 12.7179 170.844 14.8718C170.844 17.0256 171.197 19.1795 172.405 20.7179C173.513 22.3077 175.176 23.1282 177.241 23.1282C178.55 23.1282 179.91 22.8718 180.917 21.9487C181.874 21.0769 182.328 20.1026 182.68 18.9231L189.329 20.4615C188.623 23.1795 187.465 25.7949 185.299 27.4359C182.831 29.282 180.766 29.8462 177.241 29.8462C172.607 29.8462 169.333 28.359 166.865 25.1795C164.498 22.1538 163.49 18.7692 163.49 14.9231C163.49 10.9231 164.548 7.48718 166.865 4.71795C169.484 1.58974 172.708 0 177.341 0C180.313 0 182.227 0.410256 184.594 1.89744C187.163 3.48718 188.623 6 189.329 9.4359L182.831 11.2821Z" fill="#28282D"/>
</svg>
