<svg width="18" height="18" viewBox="0 0 18 18" fill="none" xmlns="http://www.w3.org/2000/svg">
<path d="M8.11114 3.56196V15.4366C8.11088 15.805 7.9806 16.1615 7.74325 16.4433C7.50589 16.7251 7.1767 16.9141 6.81367 16.977C6.45064 17.0399 6.07705 16.9727 5.75874 16.7872C5.44042 16.6016 5.19779 16.3097 5.0736 15.9628L3.16502 10.4958M3.16502 10.4958C2.4105 10.175 1.78998 9.60421 1.40848 8.87847C1.02698 8.15274 0.907936 7.31749 1.07148 6.51407C1.23503 5.71065 1.67113 4.98841 2.30598 4.46957C2.94083 3.95074 3.73544 3.66717 4.55534 3.66685H6.1839C9.82859 3.66685 12.9621 2.56989 14.3338 1V13.4453C12.9621 11.8754 9.82948 10.7785 6.1839 10.7785H4.55534C4.07765 10.7792 3.60474 10.6824 3.16502 10.4958ZM14.3338 9.88951C15.0411 9.88951 15.7194 9.60854 16.2195 9.1084C16.7197 8.60827 17.0006 7.92995 17.0006 7.22265C17.0006 6.51536 16.7197 5.83704 16.2195 5.33691C15.7194 4.83677 15.0411 4.5558 14.3338 4.5558V9.88951Z" stroke="#27272A" stroke-width="2" stroke-linecap="round" stroke-linejoin="round"/>
</svg>
