<svg width="18" height="18" viewBox="0 0 18 18" fill="none" xmlns="http://www.w3.org/2000/svg">
<path d="M5.64775 6.33333C6.13575 5.29778 7.4522 4.55556 9.00064 4.55556C10.9651 4.55556 12.5562 5.74933 12.5562 7.22222C12.5562 8.46667 11.4202 9.51111 9.8842 9.80622C9.40242 9.89867 9.00064 10.2862 9.00064 10.7778M9.00064 13.4444H9.00953M17.0006 9C17.0006 10.0506 16.7937 11.0909 16.3917 12.0615C15.9896 13.0321 15.4004 13.914 14.6575 14.6569C13.9146 15.3997 13.0327 15.989 12.0621 16.391C11.0915 16.7931 10.0512 17 9.00064 17C7.95007 17 6.90978 16.7931 5.93917 16.391C4.96857 15.989 4.08666 15.3997 3.34379 14.6569C2.60092 13.914 2.01164 13.0321 1.6096 12.0615C1.20757 11.0909 1.00064 10.0506 1.00064 9C1.00064 6.87827 1.8435 4.84344 3.34379 3.34315C4.84408 1.84285 6.87891 1 9.00064 1C11.1224 1 13.1572 1.84285 14.6575 3.34315C16.1578 4.84344 17.0006 6.87827 17.0006 9Z" stroke="#27272A" stroke-width="2" stroke-linecap="round" stroke-linejoin="round"/>
</svg>
