<svg width="10" height="7" viewBox="0 0 10 7" fill="none" xmlns="http://www.w3.org/2000/svg">
<path fill-rule="evenodd" clip-rule="evenodd" d="M0.291823 0.804675C0.479125 0.617581 0.733126 0.512477 0.99797 0.512477C1.26281 0.512477 1.51682 0.617581 1.70412 0.804675L4.99315 4.09106L8.28217 0.804675C8.37431 0.709357 8.48452 0.633328 8.60638 0.581024C8.72824 0.52872 8.8593 0.501189 8.99192 0.500038C9.12454 0.498886 9.25606 0.524137 9.3788 0.574317C9.50155 0.624497 9.61307 0.698601 9.70685 0.792305C9.80063 0.886009 9.87479 0.997437 9.92501 1.12009C9.97523 1.24274 10.0005 1.37415 9.99935 1.50666C9.9982 1.63918 9.97065 1.77013 9.9183 1.89189C9.86595 2.01365 9.78986 2.12377 9.69447 2.21583L5.69929 6.2078C5.51199 6.3949 5.25799 6.5 4.99315 6.5C4.7283 6.5 4.4743 6.3949 4.287 6.2078L0.291823 2.21583C0.104578 2.02868 -0.000610352 1.77489 -0.000610352 1.51026C-0.000610352 1.24562 0.104578 0.991826 0.291823 0.804675Z" fill="#27272A"/>
</svg>
