<svg width="120" height="42" viewBox="0 0 120 42" fill="none" xmlns="http://www.w3.org/2000/svg">
<rect x="0.200012" y="0.974121" width="119.2" height="40.9785" rx="4" fill="#28282D"/>
<path fillRule="evenodd" clipRule="evenodd" d="M22.5693 11.4612H13.8286C9.7077 11.4612 8.20001 12.9689 8.20001 17.0897V25.8368C8.20001 29.9577 9.7077 31.4654 13.8286 31.4654H22.5693C26.6902 31.4654 28.2 29.9577 28.2 25.8368V17.0897C28.2042 12.9689 26.6965 11.4612 22.5693 11.4612Z" fill="#C8102E"/>
<path d="M12.1607 21.4634H12.6914V24.0808H12.1607V23.0174H10.9626V24.0808H10.4319V21.4634H10.9626V22.5162H12.1607V21.4634ZM15.1508 22.9605C15.1508 23.3817 14.9403 23.6133 14.557 23.6133C14.1738 23.6133 13.959 23.3817 13.959 22.9374V21.4634H13.4284V22.9584C13.4284 23.6933 13.8369 24.1145 14.5486 24.1145C15.2603 24.1145 15.6815 23.6933 15.6815 22.9353V21.4634H15.1508V22.9605ZM21.2826 23.2617L20.6888 21.4634H20.253L19.6634 23.2638L19.0843 21.4634H18.52L19.4317 24.0808H19.8718L20.4635 22.3625L21.0573 24.0808H21.5016L22.4134 21.4634H21.8617L21.2826 23.2617ZM23.3631 22.9521H24.3296V22.4783H23.3631V21.9435H24.7655V21.4634H22.8409V24.0745H24.816V23.6028H23.3631V22.9521ZM25.4477 24.0745H25.9721V21.4634H25.4477V24.0745ZM16.7301 23.5333L16.4922 24.0766H15.951L17.0944 21.4634H17.5619L18.7095 24.0766H18.162L17.9367 23.5354L16.7301 23.5333ZM16.928 23.0616H17.7261L17.326 22.1267L16.928 23.0616Z" fill="white"/>
<path d="M18.2019 18.1341C17.3192 18.1335 16.4727 17.7826 15.8485 17.1584C15.2243 16.5341 14.8734 15.6877 14.8728 14.8049H15.3424C15.3424 15.5633 15.6436 16.2907 16.1799 16.8269C16.7162 17.3632 17.4435 17.6645 18.2019 17.6645C18.9603 17.6645 19.6877 17.3632 20.2239 16.8269C20.7602 16.2907 21.0615 15.5633 21.0615 14.8049H21.531C21.5305 15.6877 21.1796 16.5341 20.5554 17.1584C19.9311 17.7826 19.0847 18.1335 18.2019 18.1341Z" fill="white"/>
<path d="M43.0388 27.798H38.9734L37.9866 30.5113H36.2L40.1752 20.3745H41.8624L45.9278 30.5113H44.058L43.0388 27.798ZM39.4911 26.4113H42.5188L41.4348 23.5085C41.2869 23.1086 41.139 22.6649 40.9957 22.1795C40.864 22.6094 40.7207 23.0462 40.5681 23.4946L39.4911 26.4113Z" fill="white"/>
<path d="M46.6466 24.8098C46.6466 24.2505 46.6281 23.6342 46.5911 22.9609H48.2089C48.2697 23.2778 48.3114 23.5981 48.3337 23.92C48.6168 23.5808 48.9699 23.3068 49.3689 23.1169C49.7678 22.927 50.2031 22.8257 50.6449 22.8199C51.1629 22.8117 51.6716 22.9582 52.106 23.2406C52.5403 23.523 52.8805 23.9286 53.0832 24.4054C53.3675 25.0609 53.5025 25.7714 53.4784 26.4854C53.496 27.264 53.338 28.0366 53.0162 28.7458C52.7469 29.3344 52.3074 29.8287 51.7543 30.1648C51.1852 30.4937 50.537 30.6607 49.8799 30.6479C49.3628 30.6476 48.8495 30.56 48.3615 30.389V33.516L46.6327 33.664L46.6466 24.8098ZM51.1903 28.6626C51.5416 28.2003 51.7196 27.507 51.7196 26.5825C51.7196 25.7397 51.5732 25.1234 51.2805 24.7336C51.1482 24.5524 50.974 24.406 50.7727 24.307C50.5714 24.208 50.3491 24.1592 50.1249 24.165C49.8019 24.1607 49.4834 24.2403 49.2004 24.3961C48.8999 24.5664 48.6264 24.7806 48.3892 25.0317V29.0763C48.5807 29.1666 48.7825 29.2333 48.9901 29.275C49.2134 29.3233 49.4411 29.3481 49.6696 29.349C49.9597 29.3664 50.2497 29.313 50.5146 29.1934C50.7796 29.0738 51.0115 28.8916 51.1903 28.6626Z" fill="white"/>
<path d="M54.5299 24.8098C54.5299 24.2505 54.5114 23.6342 54.4745 22.9609H56.0923C56.155 23.2776 56.1974 23.5979 56.2194 23.92C56.8927 23.1866 57.6631 22.8199 58.5306 22.8199C59.0486 22.8117 59.5573 22.9582 59.9916 23.2406C60.4259 23.523 60.7662 23.9286 60.9689 24.4054C61.2532 25.0609 61.3882 25.7714 61.3641 26.4854C61.3853 27.2631 61.2313 28.0357 60.9134 28.7458C60.6435 29.3347 60.2031 29.829 59.6492 30.1648C59.0802 30.494 58.432 30.6611 57.7748 30.6479C57.2577 30.6476 56.7444 30.56 56.2564 30.389V33.516L54.5276 33.664L54.5299 24.8098ZM59.0806 28.6626C59.4319 28.1895 59.6076 27.4962 59.6076 26.5825C59.6076 25.7397 59.462 25.1234 59.1708 24.7336C59.0385 24.5524 58.8642 24.406 58.663 24.307C58.4617 24.208 58.2394 24.1592 58.0152 24.165C57.6923 24.1611 57.3738 24.2407 57.0907 24.3961C56.7901 24.5664 56.5167 24.7806 56.2795 25.0317V29.0763C56.4713 29.1659 56.673 29.2326 56.8804 29.275C57.1037 29.3233 57.3314 29.3481 57.5599 29.349C57.85 29.366 58.1398 29.3124 58.4047 29.1928C58.6695 29.0733 58.9015 28.8913 59.0806 28.6626Z" fill="white"/>
<path d="M64.5421 30.0331C63.8035 29.628 63.2037 29.0104 62.8203 28.2604C62.4012 27.4129 62.195 26.476 62.2194 25.5309C62.1894 24.5197 62.4287 23.5187 62.9127 22.6304C63.3498 21.8595 64.0063 21.236 64.7986 20.8392C65.6314 20.4323 66.5483 20.2273 67.475 20.2406C68.037 20.2382 68.5972 20.3034 69.1437 20.4347C69.6547 20.5551 70.1508 20.7318 70.6228 20.9617L70.1745 22.2906C69.3569 21.8782 68.4575 21.654 67.542 21.6342C66.8958 21.6235 66.2582 21.7829 65.6931 22.0965C65.1569 22.4043 64.726 22.8666 64.4566 23.4231C64.1468 24.0831 63.9964 24.8067 64.0175 25.5355C64.006 26.1922 64.1205 26.8449 64.3549 27.4584C64.5677 28.0015 64.942 28.4661 65.4273 28.7897C65.9801 29.1356 66.6246 29.3064 67.2762 29.2796C67.6139 29.2788 67.9509 29.2502 68.2839 29.1941C68.6061 29.1429 68.9227 29.0609 69.2292 28.9491V26.8876H66.8856V25.5448H70.9094V29.8181C70.3256 30.0902 69.7143 30.2986 69.0859 30.4398C68.4628 30.5834 67.8255 30.6563 67.1861 30.6571C66.2658 30.6792 65.3554 30.4643 64.5421 30.0331Z" fill="white"/>
<path d="M77.05 30.5114C76.9847 30.1814 76.9445 29.8468 76.9298 29.5107C76.6411 29.8466 76.2883 30.1216 75.8921 30.3196C75.4448 30.5462 74.949 30.6604 74.4476 30.6524C74.0374 30.6576 73.6313 30.5699 73.2597 30.3958C72.9062 30.2301 72.6107 29.962 72.4115 29.6262C72.1907 29.2457 72.081 28.811 72.0949 28.3713C72.0819 28.0377 72.1468 27.7058 72.2844 27.4017C72.422 27.0976 72.6285 26.8298 72.8876 26.6194C73.4145 26.1818 74.2936 25.9638 75.5246 25.9653C75.9832 25.9651 76.4412 25.9975 76.8952 26.0624V25.9145C76.8952 25.2488 76.7534 24.7789 76.4699 24.5046C76.131 24.213 75.6911 24.0661 75.245 24.0956C74.8454 24.1004 74.4479 24.1548 74.0617 24.2574C73.679 24.3496 73.306 24.4781 72.9477 24.641L72.675 23.3837C73.0669 23.2165 73.474 23.0872 73.8906 22.9978C74.4147 22.8793 74.9504 22.8203 75.4877 22.8221C76.0569 22.8066 76.6233 22.908 77.1517 23.1203C77.6165 23.3257 77.995 23.687 78.2218 24.1418C78.5054 24.7507 78.6378 25.4191 78.6078 26.0901V29.0947C78.6078 29.4028 78.6263 29.8758 78.6632 30.5137L77.05 30.5114ZM76.0146 29.1247C76.3478 28.9699 76.647 28.7507 76.8952 28.4799V27.0932C76.5116 27.0478 76.1258 27.0224 75.7396 27.0169C75.0262 27.0169 74.5324 27.1325 74.2581 27.3636C74.1243 27.4766 74.018 27.6186 73.9471 27.7787C73.8763 27.9389 73.8427 28.113 73.849 28.288C73.8365 28.4393 73.8567 28.5914 73.9081 28.7342C73.9596 28.8769 74.0411 29.007 74.1472 29.1155C74.3725 29.3054 74.6618 29.4022 74.9561 29.3859C75.3242 29.3803 75.6862 29.291 76.0146 29.1247Z" fill="white"/>
<path d="M79.9436 28.6995V19.7783L81.6631 19.6396V28.3921C81.6387 28.6351 81.6965 28.8792 81.8272 29.0854C81.8933 29.1565 81.9746 29.2115 82.0652 29.2463C82.1557 29.2812 82.2529 29.2949 82.3495 29.2865C82.5063 29.2797 82.6616 29.2533 82.8118 29.2079L83.0152 30.4467C82.8216 30.5198 82.621 30.5725 82.4166 30.6039C82.1959 30.6422 81.9725 30.6622 81.7486 30.664C80.5453 30.6563 79.9436 30.0014 79.9436 28.6995Z" fill="white"/>
<path d="M84.2448 28.6995V19.7783L85.9666 19.6396V28.3921C85.9421 28.6351 85.9999 28.8792 86.1307 29.0854C86.1967 29.1565 86.2781 29.2115 86.3686 29.2463C86.4591 29.2812 86.5564 29.2949 86.653 29.2865C86.8097 29.2797 86.965 29.2533 87.1152 29.2079L87.3163 30.4467C87.1236 30.5198 86.9237 30.5725 86.72 30.6039C86.4986 30.6423 86.2745 30.6624 86.0498 30.664C84.848 30.6563 84.2463 30.0014 84.2448 28.6995Z" fill="white"/>
<path d="M94.3886 26.9569H89.4496C89.5282 28.5393 90.2817 29.3304 91.71 29.3304C92.0766 29.3286 92.4417 29.2851 92.7986 29.201C93.163 29.1162 93.5194 29.0002 93.864 28.8543L94.243 30.0377C93.3532 30.457 92.3792 30.6673 91.3957 30.6524C90.691 30.6728 89.9928 30.5137 89.3665 30.1902C88.8238 29.897 88.3884 29.4389 88.123 28.8821C87.8297 28.237 87.6874 27.5335 87.707 26.8251C87.6879 26.0828 87.8389 25.346 88.1485 24.6711C88.4124 24.0984 88.8393 23.6161 89.3757 23.2844C89.9255 22.9606 90.5544 22.7958 91.1923 22.8083C91.8254 22.7859 92.4498 22.9612 92.9788 23.3098C93.4559 23.6409 93.8255 24.1045 94.042 24.6434C94.28 25.2303 94.3979 25.859 94.3886 26.4923V26.9569ZM92.7038 25.8591C92.7071 25.3684 92.5442 24.891 92.2416 24.5047C92.1059 24.3528 91.9385 24.2326 91.7511 24.1527C91.5638 24.0728 91.3611 24.0352 91.1576 24.0425C90.9528 24.0382 90.7494 24.0772 90.5606 24.1569C90.3719 24.2365 90.202 24.355 90.0621 24.5047C89.7362 24.8844 89.5367 25.3561 89.4912 25.8544L92.7038 25.8591Z" fill="white"/>
<path d="M95.6967 24.8581C95.6967 24.4444 95.6759 23.8112 95.6389 22.963H97.2567C97.2845 23.1733 97.3099 23.4252 97.3376 23.7141C97.3654 24.003 97.3792 24.2434 97.3885 24.426C97.5625 24.1314 97.7604 23.8516 97.9801 23.5893C98.1709 23.3652 98.4013 23.1779 98.6596 23.0369C98.9313 22.8903 99.2362 22.8163 99.5448 22.822C99.7789 22.8163 100.012 22.8451 100.238 22.9075L100.021 24.4052C99.7503 24.3268 99.4661 24.3069 99.1871 24.3467C98.9082 24.3866 98.641 24.4853 98.4031 24.6363C98.0205 24.9206 97.6872 25.2657 97.4162 25.6578V30.5113H95.6967V24.8581Z" fill="white"/>
<path d="M101.199 33.6015C100.989 33.5674 100.781 33.5172 100.578 33.4513L100.892 32.1917C101.037 32.2308 101.185 32.2624 101.333 32.2864C101.5 32.316 101.668 32.3314 101.837 32.3327C102.608 32.3327 103.181 31.8404 103.557 30.8558L103.67 30.5762L100.885 22.9631H102.734L104.148 27.218C104.33 27.7653 104.476 28.3234 104.588 28.889C104.719 28.3436 104.872 27.7981 105.05 27.2527L106.46 22.9631H108.2L105.427 30.6108C105.217 31.2268 104.932 31.8145 104.578 32.3604C104.308 32.7727 103.94 33.1111 103.506 33.3449C103.041 33.572 102.528 33.683 102.011 33.6685C101.739 33.6696 101.467 33.6471 101.199 33.6015Z" fill="white"/>
<path d="M36.2 9.35156H39.7467L39.648 10.2102H37.2347V11.8716H39.5093V12.6716H37.2347V14.5116H39.776L39.688 15.3836H36.2V9.35156Z" fill="white"/>
<path d="M42.1971 12.3062L40.3305 9.35156H41.5144L42.7838 11.5222L44.1171 9.35156H45.2665L43.3998 12.2689L45.4185 15.3836H44.2185L42.7811 13.0102L41.3171 15.3836H40.1678L42.1971 12.3062Z" fill="white"/>
<path d="M46.1839 9.35156H47.8106C48.5732 9.35156 49.1581 9.50712 49.5652 9.81823C49.7677 9.97756 49.9288 10.1834 50.0346 10.4184C50.1405 10.6533 50.188 10.9103 50.1732 11.1676C50.1845 11.535 50.0921 11.8982 49.9066 12.2156C49.7255 12.5139 49.4614 12.753 49.1466 12.9036C48.7968 13.0689 48.4134 13.1511 48.0266 13.1436C47.758 13.1398 47.4903 13.1121 47.2266 13.0609V15.3836H46.1839V9.35156ZM48.7972 12.0449C48.911 11.9356 48.9997 11.803 49.0573 11.6561C49.1148 11.5093 49.1398 11.3517 49.1306 11.1942C49.1441 11.0433 49.1203 10.8914 49.0613 10.7519C49.0022 10.6124 48.9097 10.4895 48.7919 10.3942C48.4918 10.2115 48.1425 10.1258 47.7919 10.1489H47.2266V12.2822C47.4247 12.3179 47.6253 12.3384 47.8266 12.3436C48.1762 12.3698 48.5228 12.2631 48.7972 12.0449Z" fill="white"/>
<path d="M51.2025 9.35156H52.2425V14.4929H54.7385L54.6505 15.3836H51.2025V9.35156Z" fill="white"/>
<path d="M56.3227 15.0876C55.8856 14.8417 55.5325 14.4701 55.3093 14.021C55.0668 13.5232 54.947 12.9745 54.96 12.421C54.9472 11.8425 55.0754 11.2696 55.3333 10.7516C55.5698 10.2848 55.9415 9.90002 56.4 9.64763C56.9133 9.37882 57.4877 9.24832 58.0667 9.26897C58.6142 9.25427 59.1559 9.38395 59.6373 9.64497C60.0718 9.89176 60.422 10.2634 60.6427 10.7116C60.8805 11.2042 60.9984 11.7461 60.9867 12.293C61.0011 12.8779 60.872 13.4575 60.6107 13.981C60.3719 14.4462 60.0008 14.8304 59.544 15.085C59.0398 15.3532 58.475 15.4873 57.904 15.4743C57.3519 15.4883 56.806 15.3548 56.3227 15.0876ZM59.0213 14.349C59.3153 14.1542 59.5439 13.8754 59.6773 13.549C59.827 13.1753 59.9004 12.7754 59.8933 12.373C59.9 11.9779 59.835 11.5848 59.7013 11.213C59.5817 10.8909 59.368 10.6122 59.088 10.413C58.7633 10.2143 58.39 10.1091 58.0093 10.1091C57.6287 10.1091 57.2554 10.2143 56.9307 10.413C56.6359 10.6175 56.4063 10.9027 56.2693 11.2343C56.1176 11.5926 56.0422 11.9786 56.048 12.3676C56.0416 12.7685 56.1122 13.1668 56.256 13.541C56.3837 13.8833 56.6173 14.176 56.9228 14.3764C57.2283 14.5769 57.5898 14.6747 57.9547 14.6556C58.3332 14.6649 58.7055 14.5579 59.0213 14.349Z" fill="white"/>
<path d="M62.1465 9.35147H64.0345C64.5877 9.31232 65.1382 9.45768 65.5999 9.76481C65.777 9.90388 65.918 10.0836 66.0109 10.2888C66.1037 10.494 66.1457 10.7186 66.1332 10.9435C66.1395 11.2359 66.0735 11.5253 65.9412 11.7861C65.8255 12.0148 65.6639 12.2173 65.4666 12.3808C65.2901 12.5233 65.0921 12.6367 64.8799 12.7168L66.7466 15.3835H65.5332L63.9625 12.9835H63.1972V15.3835H62.1465V9.35147ZM63.7812 12.2048C64.0128 12.2099 64.2423 12.1596 64.4506 12.0581C64.6381 11.9681 64.7963 11.8266 64.9065 11.6501C65.0166 11.4618 65.0729 11.2469 65.0692 11.0288C65.08 10.9029 65.0593 10.7764 65.009 10.6605C64.9587 10.5446 64.8805 10.443 64.7812 10.3648C64.5312 10.2083 64.2382 10.1346 63.9439 10.1541H63.1892V12.2155L63.7812 12.2048Z" fill="white"/>
<path d="M67.5599 9.35156H71.1145L71.0132 10.2102H68.6132V11.8716H70.8665V12.6716H68.5919V14.5116H71.1332L71.0559 15.3836H67.5599V9.35156Z" fill="white"/>
<path d="M74.9813 9.35156H76.0213V15.3836H74.9813V9.35156Z" fill="white"/>
<path d="M78.7759 10.2209H76.9092L76.9999 9.35156H81.6932L81.5972 10.2209H79.8186V15.3836H78.7759V10.2209Z" fill="white"/>
<path d="M86.2131 15.0875C85.7768 14.8415 85.4247 14.4698 85.2025 14.0209C84.9577 13.5238 84.8369 12.9748 84.8505 12.4209C84.8377 11.8424 84.9658 11.2695 85.2238 10.7515C85.4609 10.2851 85.8325 9.90059 86.2904 9.64754C86.7997 9.37741 87.3701 9.2433 87.9464 9.25821C88.5004 9.24329 89.0482 9.37679 89.5331 9.64487C89.9681 9.89088 90.3186 10.2627 90.5384 10.7115C90.7772 11.2039 90.896 11.7458 90.8851 12.2929C90.8999 12.8781 90.7699 13.458 90.5064 13.9809C90.2685 14.4467 89.8971 14.831 89.4398 15.0849C88.9358 15.3538 88.3709 15.4879 87.7998 15.4742C87.2459 15.4891 86.6981 15.3556 86.2131 15.0875ZM88.9144 14.3489C89.207 14.1532 89.4345 13.8746 89.5678 13.5489C89.7174 13.1752 89.7908 12.7753 89.7838 12.3729C89.7905 11.9778 89.7254 11.5847 89.5918 11.2129C89.4731 10.891 89.2603 10.6122 88.9811 10.4129C88.656 10.214 88.2823 10.1087 87.9011 10.1087C87.52 10.1087 87.1462 10.214 86.8211 10.4129C86.5263 10.6174 86.2967 10.9026 86.1598 11.2342C86.0093 11.5929 85.934 11.9786 85.9384 12.3675C85.932 12.7684 86.0026 13.1667 86.1464 13.5409C86.2737 13.8698 86.4955 14.1537 86.7838 14.3569C87.0995 14.5652 87.4724 14.6697 87.8504 14.6555C88.228 14.6633 88.599 14.5564 88.9144 14.3489Z" fill="white"/>
<path d="M92.0399 9.35156H93.2345L96.2185 14.0262C96.1919 13.5809 96.1812 13.1729 96.1812 12.7969V9.35156H97.1465V15.3836H95.9892L92.9599 10.6342C92.9892 11.1676 93.0052 11.6502 93.0052 12.0689V15.3836H92.0399V9.35156Z" fill="white"/>
</svg>
