<svg width="20" height="21" viewBox="0 0 20 21" fill="none" xmlns="http://www.w3.org/2000/svg">
<path fillRule="evenodd" clipRule="evenodd" d="M10.0001 0.454102C4.47706 0.454102 6.10352e-05 5.04403 6.10352e-05 10.7077C6.10352e-05 15.2373 2.86506 19.081 6.83906 20.4363C7.33906 20.5304 7.52106 20.2141 7.52106 19.9418C7.52106 19.6992 7.51306 19.0533 7.50806 18.1986C4.72606 18.8179 4.13906 16.8239 4.13906 16.8239C3.68506 15.6385 3.02906 15.3233 3.02906 15.3233C2.12106 14.6886 3.09806 14.7009 3.09806 14.7009C4.10106 14.7725 4.62906 15.7573 4.62906 15.7573C5.52106 17.3234 6.97006 16.871 7.53906 16.6089C7.63106 15.9466 7.88906 15.4952 8.17506 15.2393C5.95506 14.9803 3.62006 14.1 3.62006 10.1714C3.62006 9.05254 4.01006 8.1364 4.64906 7.41986C4.54606 7.16088 4.20306 6.11781 4.74706 4.70726C4.74706 4.70726 5.58706 4.43088 7.49706 5.7575C8.31283 5.52975 9.1545 5.41376 10.0001 5.41253C10.8501 5.41663 11.7051 5.53025 12.5041 5.7575C14.4131 4.43088 15.2511 4.70623 15.2511 4.70623C15.7971 6.11781 15.4531 7.16088 15.3511 7.41986C15.9911 8.1364 16.3791 9.05254 16.3791 10.1714C16.3791 14.1103 14.0401 14.9773 11.8131 15.2311C12.1721 15.5474 12.4911 16.1729 12.4911 17.13C12.4911 18.4996 12.4791 19.6061 12.4791 19.9418C12.4791 20.2162 12.6591 20.5355 13.1671 20.4352C15.1584 19.7516 16.8894 18.4446 18.1155 16.6991C19.3417 14.9535 20.0009 12.8577 20.0001 10.7077C20.0001 5.04403 15.5221 0.454102 10.0001 0.454102Z" fill="#18181B"/>
</svg>
