<svg width="18" height="14" viewBox="0 0 18 14" fill="none" xmlns="http://www.w3.org/2000/svg">
<path d="M11.6667 5.22221L15.7138 3.1991C15.8493 3.1314 15.9998 3.09944 16.1511 3.10625C16.3024 3.11307 16.4495 3.15843 16.5783 3.23804C16.7072 3.31765 16.8135 3.42886 16.8873 3.56112C16.9611 3.69338 16.9999 3.84231 17 3.99377V10.0062C16.9999 10.1577 16.9611 10.3066 16.8873 10.4389C16.8135 10.5711 16.7072 10.6823 16.5783 10.7619C16.4495 10.8415 16.3024 10.8869 16.1511 10.8937C15.9998 10.9005 15.8493 10.8686 15.7138 10.8009L11.6667 8.77777V5.22221ZM2.77778 12.3333H9.88889C10.3604 12.3333 10.8126 12.146 11.146 11.8126C11.4794 11.4792 11.6667 11.027 11.6667 10.5555V3.44443C11.6667 2.97294 11.4794 2.52075 11.146 2.18736C10.8126 1.85396 10.3604 1.66666 9.88889 1.66666H2.77778C2.30628 1.66666 1.8541 1.85396 1.5207 2.18736C1.1873 2.52075 1 2.97294 1 3.44443V10.5555C1 11.027 1.1873 11.4792 1.5207 11.8126C1.8541 12.146 2.30628 12.3333 2.77778 12.3333Z" stroke="#DC2626" stroke-width="2" stroke-linecap="round" stroke-linejoin="round"/>
</svg>
