<svg width="22" height="21" viewBox="0 0 22 21" fill="none" xmlns="http://www.w3.org/2000/svg">
<path d="M6.91906 20.4541C15.2208 20.4541 19.7616 12.7597 19.7616 6.08788C19.7616 5.86884 19.7616 5.65104 19.7484 5.4357C20.6319 4.72019 21.3943 3.83433 22.0001 2.81964C21.1762 3.22817 20.3023 3.49612 19.4074 3.61455C20.3497 2.98337 21.0549 1.9907 21.3918 0.821284C20.5059 1.40933 19.5368 1.82382 18.5263 2.04687C17.8458 1.23691 16.9456 0.70049 15.9651 0.520676C14.9845 0.340862 13.9783 0.527683 13.1023 1.05221C12.2263 1.57674 11.5293 2.40972 11.1192 3.42217C10.7091 4.43462 10.6089 5.57006 10.834 6.65268C9.03941 6.55208 7.28382 6.03044 5.68117 5.12164C4.07852 4.21284 2.66462 2.93718 1.53126 1.37748C0.954111 2.48888 0.777309 3.80456 1.03685 5.05666C1.29639 6.30876 1.97276 7.40314 2.92826 8.11699C2.21025 8.09374 1.50776 7.87766 0.880061 7.48697V7.55095C0.880489 8.71661 1.2413 9.84623 1.9013 10.7483C2.5613 11.6503 3.47988 12.2692 4.50126 12.5001C3.83665 12.7028 3.13934 12.7322 2.46296 12.5862C2.75134 13.5897 3.31291 14.4672 4.0691 15.096C4.8253 15.7248 5.73829 16.0734 6.68036 16.0932C5.74439 16.9158 4.67263 17.524 3.52636 17.883C2.38009 18.2419 1.18182 18.3446 6.10352e-05 18.185C2.06433 19.667 4.46627 20.453 6.91906 20.4492" fill="#18181B"/>
</svg>
